<svg width="100" height="100" viewBox="0 0 100 100" fill="none" xmlns="http://www.w3.org/2000/svg">
<rect width="100" height="100" fill="white"/>
<circle cx="50" cy="50" r="45" fill="black"/>
<path d="M33.5977 57.4545L31.5783 87.2806L11.6735 62.4355L33.5977 57.4545Z" fill="#FC9D27" stroke="black"/>
<path d="M36.1425 56.2875L57.8895 51.3468L34.1394 85.8724L36.1425 56.2875Z" fill="#FACC30" stroke="black"/>
<path d="M58.7938 54.1375L66.9024 89.4998H34.4682L58.7938 54.1375Z" fill="#36B230" stroke="black"/>
<path d="M30.3766 36.3821L48.3687 13.9246L45.3519 51.6714L28.8551 55.4193L30.3766 36.3821Z" fill="#754DFB" stroke="black"/>
<path d="M27.0494 56.7727L11.2854 60.3542L28.4783 38.8943L27.0494 56.7727Z" fill="#A93888" stroke="black"/>
<path d="M47.3966 52.2197L50.2592 16.4024L57.9237 49.8281L47.3966 52.2197Z" fill="#7928A0" stroke="black"/>
<path d="M55.842 32.2514L71.4045 45.6117L63.635 66.2378L55.842 32.2514Z" fill="#AADF49" stroke="black"/>
<path d="M72.7835 45.9583L88.5371 59.4826L64.9186 66.8378L72.7835 45.9583Z" fill="#089E78" stroke="black"/>
<path d="M80.1904 25.0363L87.3656 56.3281L54.6816 28.2695L50.6987 10.8992L80.1904 25.0363Z" fill="#FB111E" stroke="black"/>
<path d="M63.897 69.7678L75.2065 66.2459L67.6744 86.2416L63.897 69.7678Z" fill="#F4641E" stroke="black"/>
<path d="M77.6528 65.0886L88.5873 61.6833L70.3704 84.4215L77.6528 65.0886Z" fill="#1E63EE" stroke="black"/>
<path d="M18.786 25.0363L47.2355 11.3988L11.7595 55.6795L18.786 25.0363Z" fill="#FDEF36" stroke="black"/>
</svg>
